# Blender v2.74 (sub 0) OBJ File: 'dooropen.blend'
# www.blender.org
mtllib dooropen.mtl
o Cube
v -0.491003 -0.001379 0.048403
v -0.491003 0.829281 0.048403
v -0.491003 -0.001379 -0.052298
v -0.491003 0.829281 -0.052298
v 0.494117 -0.001379 0.048403
v 0.494117 0.829281 0.048403
v 0.494117 -0.001379 -0.052298
v 0.494117 0.829281 -0.052298
vn -1.000000 0.000000 0.000000
vn 0.000000 0.000000 -1.000000
vn 1.000000 0.000000 0.000000
vn 0.000000 0.000000 1.000000
vn 0.000000 -1.000000 0.000000
vn 0.000000 1.000000 0.000000
usemtl None
s off
f 2//1 4//1 3//1 1//1
f 4//2 8//2 7//2 3//2
f 8//3 6//3 5//3 7//3
f 6//4 2//4 1//4 5//4
f 1//5 3//5 7//5 5//5
f 6//6 8//6 4//6 2//6
