# Blender v2.74 (sub 0) OBJ File: 'wall.blend'
# www.blender.org
mtllib wall.mtl
o Cube.001_Cube.002
v -1.000000 0.000000 0.075000
v -1.000000 1.170000 0.075000
v -1.000000 0.000000 -0.075000
v -1.000000 1.170000 -0.075000
v 1.000000 0.000000 0.075000
v 1.000000 1.170000 0.075000
v 1.000000 0.000000 -0.075000
v 1.000000 1.170000 -0.075000
vn -1.000000 0.000000 0.000000
vn 1.000000 0.000000 0.000000
vn 0.000000 1.000000 0.000000
vn 0.000000 0.000000 1.000000
vn 0.000000 0.000000 -1.000000
vn 0.000000 -1.000000 0.000000
usemtl None
s off
f 2//1 4//1 3//1 1//1
f 8//2 6//2 5//2 7//2
f 6//3 8//3 4//3 2//3
f 1//4 5//4 6//4 2//4
f 3//5 4//5 8//5 7//5
f 3//6 7//6 5//6 1//6
